<?xml version="1.0" encoding="UTF-8" standalone="no"?> <!-- Created with Vectornator for iOS (http://vectornator.io/) --><!DOCTYPE svg PUBLIC "-//W3C//DTD SVG 1.1//EN" "http://www.w3.org/Graphics/SVG/1.1/DTD/svg11.dtd">
<svg height="100%" style="fill-rule:nonzero;clip-rule:evenodd;stroke-linecap:round;stroke-linejoin:round;" xmlns:xlink="http://www.w3.org/1999/xlink" xmlns="http://www.w3.org/2000/svg" xml:space="preserve" width="100%" xmlns:vectornator="http://vectornator.io" version="1.1" viewBox="0 0 80 80">
<metadata>
<vectornator:setting key="DimensionsVisible" value="1"/>
<vectornator:setting key="PencilOnly" value="0"/>
<vectornator:setting key="SnapToPoints" value="0"/>
<vectornator:setting key="OutlineMode" value="0"/>
<vectornator:setting key="CMYKEnabledKey" value="0"/>
<vectornator:setting key="RulersVisible" value="1"/>
<vectornator:setting key="SnapToEdges" value="0"/>
<vectornator:setting key="GuidesVisible" value="1"/>
<vectornator:setting key="DisplayWhiteBackground" value="0"/>
<vectornator:setting key="doHistoryDisabled" value="0"/>
<vectornator:setting key="SnapToGuides" value="1"/>
<vectornator:setting key="TimeLapseWatermarkDisabled" value="0"/>
<vectornator:setting key="Units" value="Pixels"/>
<vectornator:setting key="DynamicGuides" value="0"/>
<vectornator:setting key="IsolateActiveLayer" value="0"/>
<vectornator:setting key="SnapToGrid" value="0"/>
</metadata>
<defs/>
<g id="Capa 10" vectornator:layerName="Capa 10">
<path d="M24.4818+35.9999L75.9673+35.9999L75.9673+56.9923L24.4818+56.9923L24.4818+35.9999Z" opacity="1" fill="#f94ca2"/>
</g>
<g id="Capa 11" vectornator:layerName="Capa 11">
<g opacity="1">
<path d="M12.4597+27.4544L12.4597+25.3844L3.31565+29.0204L3.31565+31.1444L12.4597+34.7624L12.4597+32.7104L5.85365+30.0824L12.4597+27.4544Z" opacity="1" fill="#ffffff"/>
<path d="M23.0977+26.1044L25.8337+26.1044C25.7497+25.3604+25.5457+24.7004+25.2217+24.1244C24.8977+23.5484+24.4867+23.0654+23.9887+22.6754C23.4907+22.2854+22.9267+21.9884+22.2967+21.7844C21.6667+21.5804+20.9977+21.4784+20.2897+21.4784C19.3057+21.4784+18.4207+21.6524+17.6347+22.0004C16.8487+22.3484+16.1857+22.8284+15.6457+23.4404C15.1057+24.0524+14.6917+24.7694+14.4037+25.5914C14.1157+26.4134+13.9717+27.3044+13.9717+28.2644C13.9717+29.2004+14.1157+30.0734+14.4037+30.8834C14.6917+31.6934+15.1057+32.3984+15.6457+32.9984C16.1857+33.5984+16.8487+34.0694+17.6347+34.4114C18.4207+34.7534+19.3057+34.9244+20.2897+34.9244C21.0817+34.9244+21.8077+34.8044+22.4677+34.5644C23.1277+34.3244+23.7037+33.9764+24.1957+33.5204C24.6877+33.0644+25.0837+32.5124+25.3837+31.8644C25.6837+31.2164+25.8697+30.4904+25.9417+29.6864L23.2057+29.6864C23.0977+30.5504+22.8007+31.2464+22.3147+31.7744C21.8287+32.3024+21.1537+32.5664+20.2897+32.5664C19.6537+32.5664+19.1137+32.4434+18.6697+32.1974C18.2257+31.9514+17.8657+31.6244+17.5897+31.2164C17.3137+30.8084+17.1127+30.3494+16.9867+29.8394C16.8607+29.3294+16.7977+28.8044+16.7977+28.2644C16.7977+27.7004+16.8607+27.1544+16.9867+26.6264C17.1127+26.0984+17.3137+25.6274+17.5897+25.2134C17.8657+24.7994+18.2257+24.4694+18.6697+24.2234C19.1137+23.9774+19.6537+23.8544+20.2897+23.8544C20.6377+23.8544+20.9707+23.9114+21.2887+24.0254C21.6067+24.1394+21.8917+24.2984+22.1437+24.5024C22.3957+24.7064+22.6057+24.9434+22.7737+25.2134C22.9417+25.4834+23.0497+25.7804+23.0977+26.1044Z" opacity="1" fill="#ffffff"/>
<path d="M29.8657+29.9924C29.8657+29.6204+29.9017+29.2544+29.9737+28.8944C30.0457+28.5344+30.1687+28.2164+30.3427+27.9404C30.5167+27.6644+30.7477+27.4394+31.0357+27.2654C31.3237+27.0914+31.6837+27.0044+32.1157+27.0044C32.5477+27.0044+32.9107+27.0914+33.2047+27.2654C33.4987+27.4394+33.7327+27.6644+33.9067+27.9404C34.0807+28.2164+34.2037+28.5344+34.2757+28.8944C34.3477+29.2544+34.3837+29.6204+34.3837+29.9924C34.3837+30.3644+34.3477+30.7274+34.2757+31.0814C34.2037+31.4354+34.0807+31.7534+33.9067+32.0354C33.7327+32.3174+33.4987+32.5424+33.2047+32.7104C32.9107+32.8784+32.5477+32.9624+32.1157+32.9624C31.6837+32.9624+31.3237+32.8784+31.0357+32.7104C30.7477+32.5424+30.5167+32.3174+30.3427+32.0354C30.1687+31.7534+30.0457+31.4354+29.9737+31.0814C29.9017+30.7274+29.8657+30.3644+29.8657+29.9924ZM27.3097+29.9924C27.3097+30.7364+27.4237+31.4084+27.6517+32.0084C27.8797+32.6084+28.2037+33.1214+28.6237+33.5474C29.0437+33.9734+29.5477+34.3004+30.1357+34.5284C30.7237+34.7564+31.3837+34.8704+32.1157+34.8704C32.8477+34.8704+33.5107+34.7564+34.1047+34.5284C34.6987+34.3004+35.2057+33.9734+35.6257+33.5474C36.0457+33.1214+36.3697+32.6084+36.5977+32.0084C36.8257+31.4084+36.9397+30.7364+36.9397+29.9924C36.9397+29.2484+36.8257+28.5734+36.5977+27.9674C36.3697+27.3614+36.0457+26.8454+35.6257+26.4194C35.2057+25.9934+34.6987+25.6634+34.1047+25.4294C33.5107+25.1954+32.8477+25.0784+32.1157+25.0784C31.3837+25.0784+30.7237+25.1954+30.1357+25.4294C29.5477+25.6634+29.0437+25.9934+28.6237+26.4194C28.2037+26.8454+27.8797+27.3614+27.6517+27.9674C27.4237+28.5734+27.3097+29.2484+27.3097+29.9924Z" opacity="1" fill="#ffffff"/>
<path d="M45.2017+29.9564C45.2017+30.3404+45.1657+30.7124+45.0937+31.0724C45.0217+31.4324+44.9017+31.7534+44.7337+32.0354C44.5657+32.3174+44.3407+32.5424+44.0587+32.7104C43.7767+32.8784+43.4257+32.9624+43.0057+32.9624C42.6097+32.9624+42.2707+32.8754+41.9887+32.7014C41.7067+32.5274+41.4727+32.2994+41.2867+32.0174C41.1007+31.7354+40.9657+31.4144+40.8817+31.0544C40.7977+30.6944+40.7557+30.3344+40.7557+29.9744C40.7557+29.5904+40.7947+29.2214+40.8727+28.8674C40.9507+28.5134+41.0767+28.1984+41.2507+27.9224C41.4247+27.6464+41.6557+27.4244+41.9437+27.2564C42.2317+27.0884+42.5857+27.0044+43.0057+27.0044C43.4257+27.0044+43.7737+27.0884+44.0497+27.2564C44.3257+27.4244+44.5507+27.6434+44.7247+27.9134C44.8987+28.1834+45.0217+28.4954+45.0937+28.8494C45.1657+29.2034+45.2017+29.5724+45.2017+29.9564ZM45.2377+33.4484L45.2377+34.6364L47.6677+34.6364L47.6677+21.7844L45.1117+21.7844L45.1117+26.4644L45.0757+26.4644C44.7877+26.0084+44.3947+25.6634+43.8967+25.4294C43.3987+25.1954+42.8737+25.0784+42.3217+25.0784C41.6377+25.0784+41.0377+25.2134+40.5217+25.4834C40.0057+25.7534+39.5767+26.1104+39.2347+26.5544C38.8927+26.9984+38.6347+27.5114+38.4607+28.0934C38.2867+28.6754+38.1997+29.2784+38.1997+29.9024C38.1997+30.5504+38.2867+31.1744+38.4607+31.7744C38.6347+32.3744+38.8927+32.9054+39.2347+33.3674C39.5767+33.8294+40.0117+34.1954+40.5397+34.4654C41.0677+34.7354+41.6797+34.8704+42.3757+34.8704C42.9877+34.8704+43.5367+34.7594+44.0227+34.5374C44.5087+34.3154+44.9017+33.9524+45.2017+33.4484L45.2377+33.4484Z" opacity="1" fill="#ffffff"/>
<path d="M55.8577+28.9844L51.6997+28.9844C51.7117+28.8044+51.7507+28.6004+51.8167+28.3724C51.8827+28.1444+51.9967+27.9284+52.1587+27.7244C52.3207+27.5204+52.5367+27.3494+52.8067+27.2114C53.0767+27.0734+53.4157+27.0044+53.8237+27.0044C54.4477+27.0044+54.9127+27.1724+55.2187+27.5084C55.5247+27.8444+55.7377+28.3364+55.8577+28.9844ZM51.6997+30.6044L58.4137+30.6044C58.4617+29.8844+58.4017+29.1944+58.2337+28.5344C58.0657+27.8744+57.7927+27.2864+57.4147+26.7704C57.0367+26.2544+56.5537+25.8434+55.9657+25.5374C55.3777+25.2314+54.6877+25.0784+53.8957+25.0784C53.1877+25.0784+52.5427+25.2044+51.9607+25.4564C51.3787+25.7084+50.8777+26.0534+50.4577+26.4914C50.0377+26.9294+49.7137+27.4484+49.4857+28.0484C49.2577+28.6484+49.1437+29.2964+49.1437+29.9924C49.1437+30.7124+49.2547+31.3724+49.4767+31.9724C49.6987+32.5724+50.0137+33.0884+50.4217+33.5204C50.8297+33.9524+51.3277+34.2854+51.9157+34.5194C52.5037+34.7534+53.1637+34.8704+53.8957+34.8704C54.9517+34.8704+55.8517+34.6304+56.5957+34.1504C57.3397+33.6704+57.8917+32.8724+58.2517+31.7564L56.0017+31.7564C55.9177+32.0444+55.6897+32.3174+55.3177+32.5754C54.9457+32.8334+54.5017+32.9624+53.9857+32.9624C53.2657+32.9624+52.7137+32.7764+52.3297+32.4044C51.9457+32.0324+51.7357+31.4324+51.6997+30.6044Z" opacity="1" fill="#ffffff"/>
</g>
</g>
<g id="Capa 9" vectornator:layerName="Capa 9">
<g opacity="1">
<path d="M35.7092+51.2463L35.9972+52.7043L37.7972+52.7043L37.7972+45.7563L32.3972+45.7563L32.3972+47.8623L35.2412+47.8623C35.1572+48.7623+34.8602+49.4493+34.3502+49.9233C33.8402+50.3973+33.1172+50.6343+32.1812+50.6343C31.5452+50.6343+31.0052+50.5113+30.5612+50.2653C30.1172+50.0193+29.7572+49.6923+29.4812+49.2843C29.2052+48.8763+29.0042+48.4173+28.8782+47.9073C28.7522+47.3973+28.6892+46.8723+28.6892+46.3323C28.6892+45.7683+28.7522+45.2223+28.8782+44.6943C29.0042+44.1663+29.2052+43.6953+29.4812+43.2813C29.7572+42.8673+30.1172+42.5373+30.5612+42.2913C31.0052+42.0453+31.5452+41.9223+32.1812+41.9223C32.8652+41.9223+33.4472+42.1023+33.9272+42.4623C34.4072+42.8223+34.7312+43.3623+34.8992+44.0823L37.5992+44.0823C37.5272+43.3503+37.3292+42.7023+37.0052+42.1383C36.6812+41.5743+36.2702+41.1003+35.7722+40.7163C35.2742+40.3323+34.7162+40.0413+34.0982+39.8433C33.4802+39.6453+32.8412+39.5463+32.1812+39.5463C31.1972+39.5463+30.3122+39.7203+29.5262+40.0683C28.7402+40.4163+28.0772+40.8963+27.5372+41.5083C26.9972+42.1203+26.5832+42.8373+26.2952+43.6593C26.0072+44.4813+25.8632+45.3723+25.8632+46.3323C25.8632+47.2683+26.0072+48.1413+26.2952+48.9513C26.5832+49.7613+26.9972+50.4663+27.5372+51.0663C28.0772+51.6663+28.7402+52.1373+29.5262+52.4793C30.3122+52.8213+31.1972+52.9923+32.1812+52.9923C32.8052+52.9923+33.4232+52.8633+34.0352+52.6053C34.6472+52.3473+35.2052+51.8943+35.7092+51.2463Z" opacity="1" fill="#000000"/>
<path d="M42.4412+41.9583L42.4412+39.8523L39.8852+39.8523L39.8852+41.9583L42.4412+41.9583ZM39.8852+43.3983L39.8852+52.7043L42.4412+52.7043L42.4412+43.3983L39.8852+43.3983Z" opacity="1" fill="#000000"/>
<path d="M44.4572+43.3983L44.4572+52.7043L47.0132+52.7043L47.0132+48.5103C47.0132+48.0903+47.0552+47.7003+47.1392+47.3403C47.2232+46.9803+47.3642+46.6653+47.5622+46.3953C47.7602+46.1253+48.0212+45.9123+48.3452+45.7563C48.6692+45.6003+49.0652+45.5223+49.5332+45.5223C49.6892+45.5223+49.8512+45.5313+50.0192+45.5493C50.1872+45.5673+50.3312+45.5883+50.4512+45.6123L50.4512+43.2363C50.2472+43.1763+50.0612+43.1463+49.8932+43.1463C49.5692+43.1463+49.2572+43.1943+48.9572+43.2903C48.6572+43.3863+48.3752+43.5213+48.1112+43.6953C47.8472+43.8693+47.6132+44.0793+47.4092+44.3253C47.2052+44.5713+47.0432+44.8383+46.9232+45.1263L46.8872+45.1263L46.8872+43.3983L44.4572+43.3983Z" opacity="1" fill="#000000"/>
<path d="M51.5312+39.8523L51.5312+52.7043L54.0872+52.7043L54.0872+39.8523L51.5312+39.8523Z" opacity="1" fill="#000000"/>
<path d="M58.0832+49.6803L55.6532+49.6803C55.6772+50.3043+55.8182+50.8233+56.0762+51.2373C56.3342+51.6513+56.6642+51.9843+57.0662+52.2363C57.4682+52.4883+57.9272+52.6683+58.4432+52.7763C58.9592+52.8843+59.4872+52.9383+60.0272+52.9383C60.5552+52.9383+61.0742+52.8873+61.5842+52.7853C62.0942+52.6833+62.5472+52.5063+62.9432+52.2543C63.3392+52.0023+63.6602+51.6693+63.9062+51.2553C64.1522+50.8413+64.2752+50.3283+64.2752+49.7163C64.2752+49.2843+64.1912+48.9213+64.0232+48.6273C63.8552+48.3333+63.6332+48.0873+63.3572+47.8893C63.0812+47.6913+62.7662+47.5323+62.4122+47.4123C62.0582+47.2923+61.6952+47.1903+61.3232+47.1063C60.9632+47.0223+60.6092+46.9443+60.2612+46.8723C59.9132+46.8003+59.6042+46.7193+59.3342+46.6293C59.0642+46.5393+58.8452+46.4223+58.6772+46.2783C58.5092+46.1343+58.4252+45.9483+58.4252+45.7203C58.4252+45.5283+58.4732+45.3753+58.5692+45.2613C58.6652+45.1473+58.7822+45.0603+58.9202+45.0003C59.0582+44.9403+59.2112+44.9013+59.3792+44.8833C59.5472+44.8653+59.7032+44.8563+59.8472+44.8563C60.3032+44.8563+60.6992+44.9433+61.0352+45.1173C61.3712+45.2913+61.5572+45.6243+61.5932+46.1163L64.0232+46.1163C63.9752+45.5403+63.8282+45.0633+63.5822+44.6853C63.3362+44.3073+63.0272+44.0043+62.6552+43.7763C62.2832+43.5483+61.8602+43.3863+61.3862+43.2903C60.9122+43.1943+60.4232+43.1463+59.9192+43.1463C59.4152+43.1463+58.9232+43.1913+58.4432+43.2813C57.9632+43.3713+57.5312+43.5273+57.1472+43.7493C56.7632+43.9713+56.4542+44.2743+56.2202+44.6583C55.9862+45.0423+55.8692+45.5343+55.8692+46.1343C55.8692+46.5423+55.9532+46.8873+56.1212+47.1693C56.2892+47.4513+56.5112+47.6853+56.7872+47.8713C57.0632+48.0573+57.3782+48.2073+57.7322+48.3213C58.0862+48.4353+58.4492+48.5343+58.8212+48.6183C59.7332+48.8103+60.4442+49.0023+60.9542+49.1943C61.4642+49.3863+61.7192+49.6743+61.7192+50.0583C61.7192+50.2863+61.6652+50.4753+61.5572+50.6253C61.4492+50.7753+61.3142+50.8953+61.1522+50.9853C60.9902+51.0753+60.8102+51.1413+60.6122+51.1833C60.4142+51.2253+60.2252+51.2463+60.0452+51.2463C59.7932+51.2463+59.5502+51.2163+59.3162+51.1563C59.0822+51.0963+58.8752+51.0033+58.6952+50.8773C58.5152+50.7513+58.3682+50.5893+58.2542+50.3913C58.1402+50.1933+58.0832+49.9563+58.0832+49.6803Z" opacity="1" fill="#000000"/>
<path d="M65.6252+50.7783L65.6252+52.8303L74.7692+49.2123L74.7692+47.0883L65.6252+43.4523L65.6252+45.5223L72.2312+48.1503L65.6252+50.7783Z" opacity="1" fill="#000000"/>
</g>
</g>
<g id="Capa 5" vectornator:layerName="Capa 5">
<path stroke="#000000" stroke-width="1.42" d="M40.6478+47.0899C40.6478+47.0899+55.0087+23.6415+32.3794+44.4453C32.3794+44.4453+12.3612+66.9241+30.5516+57.051" fill="none" stroke-linecap="round" opacity="1" stroke-linejoin="round"/>
<path stroke="#ffffff" stroke-width="1.42" d="M40.549+46.4973C40.549+46.4973+54.9099+23.0489+32.2806+43.8527C32.2806+43.8527+12.2624+66.3315+30.4529+56.4585" fill="none" stroke-linecap="round" opacity="1" stroke-linejoin="round"/>
<path stroke="#000000" stroke-width="1.41986" d="M26.7959+36.8479C26.7959+36.8479+3.34899+31.6712+31.7121+48.4956C31.7121+48.4956+55.2346+65.32+41.1665+48.7309" fill="none" stroke-linecap="round" opacity="1" stroke-linejoin="round"/>
<path stroke="#000000" stroke-width="1.42" d="M33.9484+36.5447C33.9484+36.5447+25.0045+19.1673+30.2383+49.6647C30.2383+49.6647+35.4722+75.4703+37.6584+55.7468" fill="none" stroke-linecap="round" opacity="1" stroke-linejoin="round"/>
</g>
<g id="Capa 6" vectornator:layerName="Capa 6">
<path stroke="#ffffff" stroke-width="1.42" d="M33.4052+36.4954C33.4052+36.4954+24.4613+19.1179+29.6951+49.6153C29.6951+49.6153+34.9289+75.4209+37.1152+55.6975" fill="none" stroke-linecap="round" opacity="1" stroke-linejoin="round"/>
</g>
<g id="Capa 7" vectornator:layerName="Capa 7">
<path stroke="#ffffff" stroke-width="1.41986" d="M26.4996+37.2924C26.4996+37.2924+3.05269+32.1156+31.4158+48.9401C31.4158+48.9401+54.9383+65.7645+40.8702+49.1754" fill="none" stroke-linecap="round" opacity="1" stroke-linejoin="round"/>
<g opacity="1">
<path d="M42.4248+41.9584L42.4248+39.8524L39.8688+39.8524L39.8688+41.9584L42.4248+41.9584ZM39.8688+43.3984L39.8688+52.7044L42.4248+52.7044L42.4248+43.3984L39.8688+43.3984Z" opacity="1" fill="#000000"/>
<path d="M44.4408+43.3984L44.4408+52.7044L46.9968+52.7044L46.9968+48.5104C46.9968+48.0904+47.0388+47.7004+47.1228+47.3404C47.2068+46.9804+47.3478+46.6654+47.5458+46.3954C47.7438+46.1254+48.0048+45.9124+48.3288+45.7564C48.6528+45.6004+49.0488+45.5224+49.5168+45.5224C49.6728+45.5224+49.8348+45.5314+50.0028+45.5494C50.1708+45.5674+50.3148+45.5884+50.4348+45.6124L50.4348+43.2364C50.2308+43.1764+50.0448+43.1464+49.8768+43.1464C49.5528+43.1464+49.2408+43.1944+48.9408+43.2904C48.6408+43.3864+48.3588+43.5214+48.0948+43.6954C47.8308+43.8694+47.5968+44.0794+47.3928+44.3254C47.1888+44.5714+47.0268+44.8384+46.9068+45.1264L46.8708+45.1264L46.8708+43.3984L44.4408+43.3984Z" opacity="1" fill="#000000"/>
<path d="M51.5148+39.8524L51.5148+52.7044L54.0708+52.7044L54.0708+39.8524L51.5148+39.8524Z" opacity="1" fill="#000000"/>
<path d="M58.0668+49.6804L55.6368+49.6804C55.6608+50.3044+55.8018+50.8234+56.0598+51.2374C56.3178+51.6514+56.6478+51.9844+57.0498+52.2364C57.4518+52.4884+57.9108+52.6684+58.4268+52.7764C58.9428+52.8844+59.4708+52.9384+60.0108+52.9384C60.5388+52.9384+61.0578+52.8874+61.5678+52.7854C62.0778+52.6834+62.5308+52.5064+62.9268+52.2544C63.3228+52.0024+63.6438+51.6694+63.8898+51.2554C64.1358+50.8414+64.2588+50.3284+64.2588+49.7164C64.2588+49.2844+64.1748+48.9214+64.0068+48.6274C63.8388+48.3334+63.6168+48.0874+63.3408+47.8894C63.0648+47.6914+62.7498+47.5324+62.3958+47.4124C62.0418+47.2924+61.6788+47.1904+61.3068+47.1064C60.9468+47.0224+60.5928+46.9444+60.2448+46.8724C59.8968+46.8004+59.5878+46.7194+59.3178+46.6294C59.0478+46.5394+58.8288+46.4224+58.6608+46.2784C58.4928+46.1344+58.4088+45.9484+58.4088+45.7204C58.4088+45.5284+58.4568+45.3754+58.5528+45.2614C58.6488+45.1474+58.7658+45.0604+58.9038+45.0004C59.0418+44.9404+59.1948+44.9014+59.3628+44.8834C59.5308+44.8654+59.6868+44.8564+59.8308+44.8564C60.2868+44.8564+60.6828+44.9434+61.0188+45.1174C61.3548+45.2914+61.5408+45.6244+61.5768+46.1164L64.0068+46.1164C63.9588+45.5404+63.8118+45.0634+63.5658+44.6854C63.3198+44.3074+63.0108+44.0044+62.6388+43.7764C62.2668+43.5484+61.8438+43.3864+61.3698+43.2904C60.8958+43.1944+60.4068+43.1464+59.9028+43.1464C59.3988+43.1464+58.9068+43.1914+58.4268+43.2814C57.9468+43.3714+57.5148+43.5274+57.1308+43.7494C56.7468+43.9714+56.4378+44.2744+56.2038+44.6584C55.9698+45.0424+55.8528+45.5344+55.8528+46.1344C55.8528+46.5424+55.9368+46.8874+56.1048+47.1694C56.2728+47.4514+56.4948+47.6854+56.7708+47.8714C57.0468+48.0574+57.3618+48.2074+57.7158+48.3214C58.0698+48.4354+58.4328+48.5344+58.8048+48.6184C59.7168+48.8104+60.4278+49.0024+60.9378+49.1944C61.4478+49.3864+61.7028+49.6744+61.7028+50.0584C61.7028+50.2864+61.6488+50.4754+61.5408+50.6254C61.4328+50.7754+61.2978+50.8954+61.1358+50.9854C60.9738+51.0754+60.7938+51.1414+60.5958+51.1834C60.3978+51.2254+60.2088+51.2464+60.0288+51.2464C59.7768+51.2464+59.5338+51.2164+59.2998+51.1564C59.0658+51.0964+58.8588+51.0034+58.6788+50.8774C58.4988+50.7514+58.3518+50.5894+58.2378+50.3914C58.1238+50.1934+58.0668+49.9564+58.0668+49.6804Z" opacity="1" fill="#000000"/>
<path d="M65.6088+50.7784L65.6088+52.8304L74.7528+49.2124L74.7528+47.0884L65.6088+43.4524L65.6088+45.5224L72.2148+48.1504L65.6088+50.7784Z" opacity="1" fill="#000000"/>
</g>
</g>
</svg>
